<?xml version="1.0" encoding="utf-8"?>
<svg xmlns="http://www.w3.org/2000/svg" width="500" height="506" viewBox="0 173.941 500 168.349" xmlns:bx="https://boxy-svg.com" preserveAspectRatio="none"><defs><bx:export><bx:file format="svg"/></bx:export></defs><clipPath id="cl_3"><rect width="500" height="506" rx="38" ry="37.973003"/></clipPath><g clip-path="url(#cl_3)"><defs><linearGradient id="gradient_0" gradientUnits="userSpaceOnUse" x1="448.17578" y1="293.08865" x2="427.40411" y2="217.11798"><stop offset="0" stop-color="#000167"/><stop offset="1" stop-color="#55118C"/></linearGradient></defs><path transform="scale(0.976562 0.988281)" d="M412.658 224.694C421.946 216.959 434.264 213.902 446.092 216.395C464.113 220.194 477.119 235.941 477.446 254.355C477.774 272.769 465.335 288.968 447.46 293.404C429.585 297.841 411.015 289.34 402.693 272.91C394.372 256.48 398.505 236.479 412.658 224.694ZM439.365 280.042C453.436 279.397 464.289 267.413 463.539 253.347C462.789 239.281 450.725 228.518 436.665 229.373C422.752 230.219 412.127 242.129 412.869 256.047C413.611 269.966 425.441 280.679 439.365 280.042Z" fill="url(#gradient_0)"/><path transform="scale(0.976562 0.988281)" d="M412.658 224.694C421.946 216.959 434.264 213.902 446.092 216.395C445.021 216.958 442.229 216.3 440.96 216.284C428.367 216.128 423.473 217.781 413.054 224.865L412.658 224.694Z" fill="#4D0589"/><defs><linearGradient id="gradient_1" gradientUnits="userSpaceOnUse" x1="291.12805" y1="297.16492" x2="258.22601" y2="225.7254"><stop offset="0" stop-color="#220669"/><stop offset="1" stop-color="#750DAC"/></linearGradient></defs><path transform="scale(0.976562 0.988281)" d="M248.76 246.396L248.721 230.387C248.718 224.861 246.875 217.981 254.188 217.124C259.912 216.453 272.457 216.724 278.279 216.996C301.429 219.711 312.315 249.904 292.808 265.029C291.23 266.252 289.526 267.295 287.826 268.337L296.018 278.828C299.131 282.765 306.089 289.323 299.858 293.915C291.432 300.125 279.995 277.902 274.891 271.75C270.875 271.815 266.857 271.766 262.841 271.75C262.858 276.088 263.417 285.977 262.6 289.742C260.973 297.233 250.202 296.6 249.094 289.235C247.564 279.057 248.59 257.184 248.76 246.396ZM262.841 237.297L262.841 258.069C268.977 258.099 277.944 259.151 283.259 255.937C293.974 249.456 289.927 233.546 278.279 230.972L262.841 230.972L262.841 237.297Z" fill="url(#gradient_1)"/><path transform="scale(0.976562 0.988281)" d="M248.76 246.396L248.721 230.387C248.718 224.861 246.875 217.981 254.188 217.124C259.912 216.453 272.457 216.724 278.279 216.996C272.425 217.588 268.189 224.752 263.68 227.793C260.215 230.13 254.223 231.863 251.589 235.098C247.983 239.525 250.074 242.147 248.76 246.396Z" fill="#8F09AF"/><path transform="scale(0.976562 0.988281)" d="M262.841 237.297C262.129 235.58 261.749 231.891 262.794 230.429C264.641 229.911 276.72 230.13 278.279 230.972L262.841 230.972L262.841 237.297Z" fill="#8F09AF"/><path transform="scale(0.976562 0.988281)" d="M390.673 216.27C396.173 215.987 399.966 219.158 398.47 225.199C396.112 234.715 383.786 257.544 379.291 267.118C377.391 271.165 369.036 296.343 364.567 294.489C361.099 293.05 356.434 279.011 354.884 275.542L340.95 244.161C338.59 238.421 333.335 229.014 332.232 223.484C330.835 216.485 339.79 214.201 343.399 219.598C349.344 228.489 360.344 256.503 364.666 267.165C369.295 257.754 382.976 219.005 390.673 216.27Z" fill="#4D0589"/><path transform="scale(0.976562 0.988281)" d="M185.656 229.906C184.875 214.319 185.802 216.983 200.013 216.982L222.97 217.024C227.684 217.042 238.59 215.541 242.506 218.031C245.33 220.262 245.709 224.947 243.41 227.692C240.155 231.58 227.885 229.9 223.262 229.906L223.266 270.631C223.27 278.026 226.07 293.825 217.258 294.675L216.789 294.723C216.695 294.732 216.601 294.739 216.507 294.747C206.742 294.234 209.57 281.084 209.572 274.247L209.588 245.436L209.588 229.906C201.62 229.797 193.618 230.169 185.656 229.906Z" fill="#4D0589"/><path transform="scale(0.976562 0.988281)" d="M185.656 229.906C184.875 214.319 185.802 216.983 200.013 216.982L222.97 217.024C227.684 217.042 238.59 215.541 242.506 218.031C229.447 217.057 235.154 217.22 225.39 222.86C219.578 226.216 213.397 227.468 209.588 233.477C209.973 235.159 210.468 244.334 209.588 245.436L209.588 229.906C201.62 229.797 193.618 230.169 185.656 229.906Z" fill="#8F09AF"/><defs><linearGradient id="gradient_2" gradientUnits="userSpaceOnUse" x1="100.50462" y1="297.61154" x2="89.417923" y2="215.79967"><stop offset="0" stop-color="#32087E"/><stop offset="1" stop-color="#BB04C4"/></linearGradient></defs><path transform="scale(0.976562 0.988281)" d="M64.6249 250.781C67.2018 244.768 70.5233 239.142 73.529 233.343C75.6279 229.294 79.3054 218.021 83.9967 216.68C91.1646 214.632 93.535 223.936 95.9344 228.641C98.2721 233.224 102.402 239.408 103.653 244.161C106.563 247.63 108.402 252.679 110.454 256.724L120.771 276.911C123.528 282.294 127.682 288.397 129.52 294.056C123.864 294.128 118.204 294.072 112.548 294.056C106.145 282.159 100.256 269.687 94.5775 257.431C92.9021 253.815 90.6403 250.168 89.3672 246.396C88.2641 244.376 87.3772 242.274 86.4725 240.161C83.9212 243.526 82.5642 247.281 80.3401 250.781C79.6422 252.605 78.5244 254.303 77.5707 256.007C74.4747 255.973 64.1256 256.555 61.9414 256.007C62.8549 254.209 63.3735 252.426 64.6249 250.781Z" fill="url(#gradient_2)"/><path transform="scale(0.976562 0.988281)" d="M64.6249 250.781C66.1701 249.903 65.8346 248.088 67.8162 247.468C87.2453 241.38 79.5884 248.864 80.3401 250.781C79.6422 252.605 78.5244 254.303 77.5707 256.007C74.4747 255.973 64.1256 256.555 61.9414 256.007C62.8549 254.209 63.3735 252.426 64.6249 250.781Z" fill="#4D0589"/><path transform="scale(0.976562 0.988281)" d="M137.246 242.662L137.218 228.629C137.214 220.243 135.361 216.16 145.986 216.791C152.684 217.189 150.768 225.878 150.767 230.596L150.737 247.891C150.873 251.599 150.739 255.368 150.739 259.083L150.737 281.732L169.76 281.708C183.134 281.701 184.701 279.101 183.431 294.056C176.865 294.984 164.36 294.066 157.122 294.066C134.683 294.066 137.293 296.044 137.258 275.864L137.246 242.662Z" fill="#4D0589"/><path transform="scale(0.976562 0.988281)" d="M137.246 242.662L137.218 228.629C137.214 220.243 135.361 216.16 145.986 216.791C152.684 217.189 150.768 225.878 150.767 230.596L150.737 247.891C149.973 244.573 151.28 230.695 148.711 230.242C147.474 230.025 140.075 233.857 139.117 234.841C136.936 237.081 137.946 243.097 137.686 246.057L137.498 245.882C137.648 244.805 137.406 243.729 137.246 242.662Z" fill="#8F09AF"/><defs><linearGradient id="gradient_3" gradientUnits="userSpaceOnUse" x1="63.050056" y1="280.22089" x2="61.736221" y2="255.3896"><stop offset="0" stop-color="#9930E6"/><stop offset="1" stop-color="#D9A4FB"/></linearGradient></defs><path transform="scale(0.976562 0.988281)" d="M61.9414 256.007C64.1256 256.555 74.4747 255.973 77.5707 256.007L86.4725 256.007C85.9946 265.341 83.0297 273.73 74.3755 278.145C72.8447 278.926 70.0737 279.564 68.9164 280.757C66.351 285.031 64.302 289.661 61.9414 294.056L45.2256 294.056C46.9057 289.548 49.6409 284.899 52.102 280.757C40.8035 272.446 37.046 274.735 37.7465 256.007C40.0847 256.187 60.9009 256.299 61.9414 256.007Z" fill="url(#gradient_3)"/><path transform="scale(0.976562 0.988281)" d="M52.102 280.757C53.2362 280.645 68.5209 280.572 68.9164 280.757C66.351 285.031 64.302 289.661 61.9414 294.056L45.2256 294.056C46.9057 289.548 49.6409 284.899 52.102 280.757Z" fill="#4D0589"/><path transform="scale(0.976562 0.988281)" d="M317.07 216.996C327.899 215.054 325.004 229.929 325.005 236.245L325.018 280.565C325.073 286.336 326.721 293.267 319.066 294.747C309.452 295.783 311.146 285.733 311.149 279.538L311.153 237.258C311.154 230.815 308.811 218.206 317.07 216.996Z" fill="#4D0589"/></g></svg>