<?xml version="1.0" encoding="utf-8"?>
<svg xmlns="http://www.w3.org/2000/svg" width="500" height="506" viewBox="32.007 210.006 97.878 87.203" xmlns:bx="https://boxy-svg.com" preserveAspectRatio="none"><defs><bx:export><bx:file format="svg"/></bx:export></defs><clipPath id="cl_3"><rect width="500" height="506" rx="38" ry="37.973003"/></clipPath><g clip-path="url(#cl_3)" id="object-0"><defs><linearGradient id="gradient_2" gradientUnits="userSpaceOnUse" x1="100.50462" y1="297.61154" x2="89.417923" y2="215.79967"><stop offset="0" stop-color="#32087E"/><stop offset="1" stop-color="#BB04C4"/></linearGradient></defs><path transform="scale(0.976562 0.988281)" d="M64.6249 250.781C67.2018 244.768 70.5233 239.142 73.529 233.343C75.6279 229.294 79.3054 218.021 83.9967 216.68C91.1646 214.632 93.535 223.936 95.9344 228.641C98.2721 233.224 102.402 239.408 103.653 244.161C106.563 247.63 108.402 252.679 110.454 256.724L120.771 276.911C123.528 282.294 127.682 288.397 129.52 294.056C123.864 294.128 118.204 294.072 112.548 294.056C106.145 282.159 100.256 269.687 94.5775 257.431C92.9021 253.815 90.6403 250.168 89.3672 246.396C88.2641 244.376 87.3772 242.274 86.4725 240.161C83.9212 243.526 82.5642 247.281 80.3401 250.781C79.6422 252.605 78.5244 254.303 77.5707 256.007C74.4747 255.973 64.1256 256.555 61.9414 256.007C62.8549 254.209 63.3735 252.426 64.6249 250.781Z" fill="url(#gradient_2)"/><path transform="scale(0.976562 0.988281)" d="M64.6249 250.781C66.1701 249.903 65.8346 248.088 67.8162 247.468C87.2453 241.38 79.5884 248.864 80.3401 250.781C79.6422 252.605 78.5244 254.303 77.5707 256.007C74.4747 255.973 64.1256 256.555 61.9414 256.007C62.8549 254.209 63.3735 252.426 64.6249 250.781Z" fill="#4D0589"/><defs><linearGradient id="gradient_3" gradientUnits="userSpaceOnUse" x1="63.050056" y1="280.22089" x2="61.736221" y2="255.3896"><stop offset="0" stop-color="#9930E6"/><stop offset="1" stop-color="#D9A4FB"/></linearGradient></defs><path transform="scale(0.976562 0.988281)" d="M61.9414 256.007C64.1256 256.555 74.4747 255.973 77.5707 256.007L86.4725 256.007C85.9946 265.341 83.0297 273.73 74.3755 278.145C72.8447 278.926 70.0737 279.564 68.9164 280.757C66.351 285.031 64.302 289.661 61.9414 294.056L45.2256 294.056C46.9057 289.548 49.6409 284.899 52.102 280.757C40.8035 272.446 37.046 274.735 37.7465 256.007C40.0847 256.187 60.9009 256.299 61.9414 256.007Z" fill="url(#gradient_3)"/><path transform="scale(0.976562 0.988281)" d="M52.102 280.757C53.2362 280.645 68.5209 280.572 68.9164 280.757C66.351 285.031 64.302 289.661 61.9414 294.056L45.2256 294.056C46.9057 289.548 49.6409 284.899 52.102 280.757Z" fill="#4D0589"/></g></svg>